<mxfile host="app.diagrams.net" modified="2024-02-29T13:54:14.533Z" agent="Mozilla/5.0 (Windows NT 10.0; Win64; x64) AppleWebKit/537.36 (KHTML, like Gecko) Chrome/122.0.0.0 Safari/537.36" etag="DCdXTlRrwo-2giSba4AQ" version="23.1.6" type="device" pages="2">
  <diagram name="app-lifecylce" id="aR5tRUA3gesEHeeJ2gO3">
    <mxGraphModel dx="2816" dy="1666" grid="1" gridSize="10" guides="1" tooltips="1" connect="1" arrows="1" fold="1" page="1" pageScale="1" pageWidth="1169" pageHeight="827" math="0" shadow="0">
      <root>
        <mxCell id="0" />
        <mxCell id="1" parent="0" />
        <mxCell id="lytUGuyNLLgPfhjPxPfw-47" value="" style="fillColor=none;strokeColor=#5A6C86;dashed=1;verticalAlign=top;fontStyle=0;fontColor=#5A6C86;whiteSpace=wrap;html=1;" parent="1" vertex="1">
          <mxGeometry x="-220" y="-37" width="1260" height="847" as="geometry" />
        </mxCell>
        <mxCell id="lytUGuyNLLgPfhjPxPfw-15" style="edgeStyle=orthogonalEdgeStyle;rounded=0;orthogonalLoop=1;jettySize=auto;html=1;" parent="1" source="lytUGuyNLLgPfhjPxPfw-1" target="lytUGuyNLLgPfhjPxPfw-5" edge="1">
          <mxGeometry relative="1" as="geometry">
            <Array as="points">
              <mxPoint x="166" y="716" />
            </Array>
          </mxGeometry>
        </mxCell>
        <mxCell id="lytUGuyNLLgPfhjPxPfw-18" style="edgeStyle=orthogonalEdgeStyle;rounded=0;orthogonalLoop=1;jettySize=auto;html=1;" parent="1" source="lytUGuyNLLgPfhjPxPfw-1" target="lytUGuyNLLgPfhjPxPfw-10" edge="1">
          <mxGeometry relative="1" as="geometry" />
        </mxCell>
        <mxCell id="lytUGuyNLLgPfhjPxPfw-21" style="edgeStyle=orthogonalEdgeStyle;rounded=0;orthogonalLoop=1;jettySize=auto;html=1;" parent="1" source="lytUGuyNLLgPfhjPxPfw-1" target="lytUGuyNLLgPfhjPxPfw-9" edge="1">
          <mxGeometry relative="1" as="geometry" />
        </mxCell>
        <mxCell id="lytUGuyNLLgPfhjPxPfw-1" value="Developer X" style="shape=umlActor;verticalLabelPosition=bottom;verticalAlign=top;html=1;outlineConnect=0;" parent="1" vertex="1">
          <mxGeometry x="150.5" y="490" width="30" height="60" as="geometry" />
        </mxCell>
        <mxCell id="lytUGuyNLLgPfhjPxPfw-43" style="edgeStyle=orthogonalEdgeStyle;rounded=0;orthogonalLoop=1;jettySize=auto;html=1;" parent="1" source="lytUGuyNLLgPfhjPxPfw-5" target="lytUGuyNLLgPfhjPxPfw-9" edge="1">
          <mxGeometry relative="1" as="geometry" />
        </mxCell>
        <mxCell id="lytUGuyNLLgPfhjPxPfw-5" value="Branch - Feature A" style="image;aspect=fixed;html=1;points=[];align=center;fontSize=12;image=img/lib/azure2/general/Branch.svg;" parent="1" vertex="1">
          <mxGeometry x="494" y="680" width="72" height="72" as="geometry" />
        </mxCell>
        <mxCell id="lytUGuyNLLgPfhjPxPfw-29" style="edgeStyle=orthogonalEdgeStyle;rounded=0;orthogonalLoop=1;jettySize=auto;html=1;" parent="1" source="lytUGuyNLLgPfhjPxPfw-9" target="lytUGuyNLLgPfhjPxPfw-28" edge="1">
          <mxGeometry relative="1" as="geometry" />
        </mxCell>
        <mxCell id="lytUGuyNLLgPfhjPxPfw-32" style="edgeStyle=orthogonalEdgeStyle;rounded=0;orthogonalLoop=1;jettySize=auto;html=1;" parent="1" source="lytUGuyNLLgPfhjPxPfw-9" target="lytUGuyNLLgPfhjPxPfw-23" edge="1">
          <mxGeometry relative="1" as="geometry">
            <Array as="points">
              <mxPoint x="530" y="296" />
            </Array>
          </mxGeometry>
        </mxCell>
        <mxCell id="lytUGuyNLLgPfhjPxPfw-9" value="GitHub&lt;br&gt;Pull Request" style="shape=image;html=1;verticalAlign=top;verticalLabelPosition=bottom;labelBackgroundColor=#ffffff;imageAspect=0;aspect=fixed;image=https://cdn0.iconfinder.com/data/icons/phosphor-regular-vol-3/256/git-pull-request-128.png" parent="1" vertex="1">
          <mxGeometry x="480" y="470" width="100" height="100" as="geometry" />
        </mxCell>
        <mxCell id="lytUGuyNLLgPfhjPxPfw-13" style="edgeStyle=orthogonalEdgeStyle;rounded=0;orthogonalLoop=1;jettySize=auto;html=1;" parent="1" source="lytUGuyNLLgPfhjPxPfw-10" target="lytUGuyNLLgPfhjPxPfw-11" edge="1">
          <mxGeometry relative="1" as="geometry" />
        </mxCell>
        <mxCell id="lytUGuyNLLgPfhjPxPfw-10" value="Developer X Stage&lt;br&gt;(Developer Dedicated&lt;br&gt;Cloud Environment for testing and development of a feature)" style="rounded=1;whiteSpace=wrap;html=1;" parent="1" vertex="1">
          <mxGeometry x="-173.5" y="320" width="162" height="80" as="geometry" />
        </mxCell>
        <mxCell id="lytUGuyNLLgPfhjPxPfw-11" value="" style="outlineConnect=0;dashed=0;verticalLabelPosition=bottom;verticalAlign=top;align=center;html=1;shape=mxgraph.aws3.cloud_2;fillColor=#F58534;gradientColor=none;" parent="1" vertex="1">
          <mxGeometry x="-130" y="130" width="75" height="75" as="geometry" />
        </mxCell>
        <mxCell id="lytUGuyNLLgPfhjPxPfw-14" value="&lt;b&gt;sst dev&lt;/b&gt;" style="text;html=1;align=center;verticalAlign=middle;resizable=0;points=[];autosize=1;strokeColor=none;fillColor=none;" parent="1" vertex="1">
          <mxGeometry x="-10" y="520" width="60" height="30" as="geometry" />
        </mxCell>
        <mxCell id="lytUGuyNLLgPfhjPxPfw-16" value="2. Once feature is complete, commit &amp;amp; push code to feature&amp;nbsp;&lt;br&gt;branch" style="text;html=1;align=center;verticalAlign=middle;resizable=0;points=[];autosize=1;strokeColor=none;fillColor=none;" parent="1" vertex="1">
          <mxGeometry x="180" y="670" width="340" height="40" as="geometry" />
        </mxCell>
        <mxCell id="lytUGuyNLLgPfhjPxPfw-20" value="1. Developer writes feature code&lt;br&gt;&amp;amp; run dev env or deploys it to&amp;nbsp;test it" style="text;html=1;align=center;verticalAlign=middle;resizable=0;points=[];autosize=1;strokeColor=none;fillColor=none;" parent="1" vertex="1">
          <mxGeometry x="-85" y="480" width="210" height="40" as="geometry" />
        </mxCell>
        <mxCell id="lytUGuyNLLgPfhjPxPfw-22" value="3. Developer opens a pull-request to merge with&lt;br&gt;main branch" style="text;html=1;align=center;verticalAlign=middle;resizable=0;points=[];autosize=1;strokeColor=none;fillColor=none;" parent="1" vertex="1">
          <mxGeometry x="190" y="485" width="280" height="40" as="geometry" />
        </mxCell>
        <mxCell id="lytUGuyNLLgPfhjPxPfw-35" style="edgeStyle=orthogonalEdgeStyle;rounded=0;orthogonalLoop=1;jettySize=auto;html=1;" parent="1" source="lytUGuyNLLgPfhjPxPfw-23" target="lytUGuyNLLgPfhjPxPfw-34" edge="1">
          <mxGeometry relative="1" as="geometry" />
        </mxCell>
        <mxCell id="lytUGuyNLLgPfhjPxPfw-23" value="Production Branch" style="image;aspect=fixed;html=1;points=[];align=center;fontSize=12;image=img/lib/azure2/general/Branch.svg;" parent="1" vertex="1">
          <mxGeometry x="549" y="260" width="72" height="72" as="geometry" />
        </mxCell>
        <mxCell id="lytUGuyNLLgPfhjPxPfw-44" style="edgeStyle=orthogonalEdgeStyle;rounded=0;orthogonalLoop=1;jettySize=auto;html=1;" parent="1" source="lytUGuyNLLgPfhjPxPfw-25" target="lytUGuyNLLgPfhjPxPfw-9" edge="1">
          <mxGeometry relative="1" as="geometry">
            <Array as="points">
              <mxPoint x="550" y="440" />
            </Array>
          </mxGeometry>
        </mxCell>
        <mxCell id="lytUGuyNLLgPfhjPxPfw-25" value="Developer Y" style="shape=umlActor;verticalLabelPosition=bottom;verticalAlign=top;html=1;outlineConnect=0;" parent="1" vertex="1">
          <mxGeometry x="940" y="410" width="30" height="60" as="geometry" />
        </mxCell>
        <mxCell id="lytUGuyNLLgPfhjPxPfw-27" value="5. Developer Y reviews Developer X code,&amp;nbsp;&lt;br&gt;and approve it for merge" style="text;html=1;align=center;verticalAlign=middle;resizable=0;points=[];autosize=1;strokeColor=none;fillColor=none;" parent="1" vertex="1">
          <mxGeometry x="621" y="440" width="250" height="40" as="geometry" />
        </mxCell>
        <mxCell id="lytUGuyNLLgPfhjPxPfw-28" value="sst build" style="rounded=1;whiteSpace=wrap;html=1;" parent="1" vertex="1">
          <mxGeometry x="640" y="600" width="120" height="60" as="geometry" />
        </mxCell>
        <mxCell id="lytUGuyNLLgPfhjPxPfw-30" value="4. Automatic tests are&amp;nbsp;&lt;br&gt;performed&amp;nbsp;&lt;br&gt;" style="text;html=1;align=center;verticalAlign=middle;resizable=0;points=[];autosize=1;strokeColor=none;fillColor=none;" parent="1" vertex="1">
          <mxGeometry x="700" y="540" width="140" height="40" as="geometry" />
        </mxCell>
        <mxCell id="lytUGuyNLLgPfhjPxPfw-33" value="6. changes are merged with main&lt;br&gt;branch" style="text;html=1;align=center;verticalAlign=middle;resizable=0;points=[];autosize=1;strokeColor=none;fillColor=none;" parent="1" vertex="1">
          <mxGeometry x="330" y="400" width="200" height="40" as="geometry" />
        </mxCell>
        <mxCell id="lytUGuyNLLgPfhjPxPfw-40" style="edgeStyle=orthogonalEdgeStyle;rounded=0;orthogonalLoop=1;jettySize=auto;html=1;entryX=0.5;entryY=1;entryDx=0;entryDy=0;" parent="1" source="lytUGuyNLLgPfhjPxPfw-34" target="lytUGuyNLLgPfhjPxPfw-38" edge="1">
          <mxGeometry relative="1" as="geometry" />
        </mxCell>
        <mxCell id="lytUGuyNLLgPfhjPxPfw-34" value="Amazon&amp;nbsp;&lt;br&gt;CodeCatalyst" style="sketch=0;points=[[0,0,0],[0.25,0,0],[0.5,0,0],[0.75,0,0],[1,0,0],[0,1,0],[0.25,1,0],[0.5,1,0],[0.75,1,0],[1,1,0],[0,0.25,0],[0,0.5,0],[0,0.75,0],[1,0.25,0],[1,0.5,0],[1,0.75,0]];outlineConnect=0;fontColor=#232F3E;fillColor=#C925D1;strokeColor=#ffffff;dashed=0;verticalLabelPosition=bottom;verticalAlign=top;align=center;html=1;fontSize=12;fontStyle=0;aspect=fixed;shape=mxgraph.aws4.resourceIcon;resIcon=mxgraph.aws4.codecatalyst;" parent="1" vertex="1">
          <mxGeometry x="800" y="257" width="78" height="78" as="geometry" />
        </mxCell>
        <mxCell id="lytUGuyNLLgPfhjPxPfw-36" value="7. Triggers CI/CD pipeline" style="text;html=1;align=center;verticalAlign=middle;resizable=0;points=[];autosize=1;strokeColor=none;fillColor=none;" parent="1" vertex="1">
          <mxGeometry x="621" y="270" width="160" height="30" as="geometry" />
        </mxCell>
        <mxCell id="lytUGuyNLLgPfhjPxPfw-37" style="edgeStyle=orthogonalEdgeStyle;rounded=0;orthogonalLoop=1;jettySize=auto;html=1;" parent="1" source="lytUGuyNLLgPfhjPxPfw-38" target="lytUGuyNLLgPfhjPxPfw-39" edge="1">
          <mxGeometry relative="1" as="geometry" />
        </mxCell>
        <mxCell id="lytUGuyNLLgPfhjPxPfw-38" value="Production Stage&lt;br&gt;(Dedicated Environment for the solution)" style="rounded=1;whiteSpace=wrap;html=1;" parent="1" vertex="1">
          <mxGeometry x="758" y="125" width="162" height="80" as="geometry" />
        </mxCell>
        <mxCell id="lytUGuyNLLgPfhjPxPfw-39" value="" style="outlineConnect=0;dashed=0;verticalLabelPosition=bottom;verticalAlign=top;align=center;html=1;shape=mxgraph.aws3.cloud_2;fillColor=#F58534;gradientColor=none;" parent="1" vertex="1">
          <mxGeometry x="801.5" y="-20" width="75" height="75" as="geometry" />
        </mxCell>
        <mxCell id="lytUGuyNLLgPfhjPxPfw-42" style="edgeStyle=orthogonalEdgeStyle;rounded=0;orthogonalLoop=1;jettySize=auto;html=1;" parent="1" source="lytUGuyNLLgPfhjPxPfw-41" target="lytUGuyNLLgPfhjPxPfw-39" edge="1">
          <mxGeometry relative="1" as="geometry" />
        </mxCell>
        <mxCell id="lytUGuyNLLgPfhjPxPfw-41" value="Product Managers&lt;br&gt;Tech Team&lt;br&gt;showcasing from this environment&lt;br&gt;during the&amp;nbsp;Sprints/Demo" style="shape=umlActor;verticalLabelPosition=bottom;verticalAlign=top;html=1;outlineConnect=0;" parent="1" vertex="1">
          <mxGeometry x="515" y="-12.5" width="30" height="60" as="geometry" />
        </mxCell>
        <mxCell id="lytUGuyNLLgPfhjPxPfw-45" value="&lt;font style=&quot;font-size: 24px;&quot;&gt;&lt;b&gt;Feature Development Life Cycle&lt;/b&gt;&lt;/font&gt;" style="text;html=1;align=center;verticalAlign=middle;resizable=0;points=[];autosize=1;strokeColor=none;fillColor=none;" parent="1" vertex="1">
          <mxGeometry x="-100" y="15" width="390" height="40" as="geometry" />
        </mxCell>
        <mxCell id="2" value="&lt;b&gt;&amp;nbsp;sst deploy --stage developerX&lt;/b&gt;" style="text;html=1;align=center;verticalAlign=middle;resizable=0;points=[];autosize=1;strokeColor=none;fillColor=none;" parent="1" vertex="1">
          <mxGeometry x="-80" y="560" width="200" height="30" as="geometry" />
        </mxCell>
        <mxCell id="3" value="or" style="text;html=1;align=center;verticalAlign=middle;resizable=0;points=[];autosize=1;strokeColor=none;fillColor=none;" parent="1" vertex="1">
          <mxGeometry y="540" width="30" height="30" as="geometry" />
        </mxCell>
      </root>
    </mxGraphModel>
  </diagram>
  <diagram name="run-dev" id="1JsmGDWWQK1IEeZ22dJO">
    <mxGraphModel dx="2816" dy="1666" grid="1" gridSize="10" guides="1" tooltips="1" connect="1" arrows="1" fold="1" page="1" pageScale="1" pageWidth="1169" pageHeight="827" math="0" shadow="0">
      <root>
        <mxCell id="Fzf6os9t-jYp-12unjg--0" />
        <mxCell id="Fzf6os9t-jYp-12unjg--1" parent="Fzf6os9t-jYp-12unjg--0" />
        <mxCell id="Fzf6os9t-jYp-12unjg--6" value="Developer X" style="shape=umlActor;verticalLabelPosition=bottom;verticalAlign=top;html=1;outlineConnect=0;" vertex="1" parent="Fzf6os9t-jYp-12unjg--1">
          <mxGeometry x="290" y="545" width="30" height="60" as="geometry" />
        </mxCell>
        <mxCell id="Fzf6os9t-jYp-12unjg--35" value="&lt;font style=&quot;font-size: 17px;&quot;&gt;&lt;b&gt;SST Live Lambda&lt;br&gt;&lt;/b&gt;&lt;div style=&quot;--tw-border-spacing-x: 0; --tw-border-spacing-y: 0; --tw-translate-x: 0; --tw-translate-y: 0; --tw-rotate: 0; --tw-skew-x: 0; --tw-skew-y: 0; --tw-scale-x: 1; --tw-scale-y: 1; --tw-pan-x: ; --tw-pan-y: ; --tw-pinch-zoom: ; --tw-scroll-snap-strictness: proximity; --tw-gradient-from-position: ; --tw-gradient-via-position: ; --tw-gradient-to-position: ; --tw-ordinal: ; --tw-slashed-zero: ; --tw-numeric-figure: ; --tw-numeric-spacing: ; --tw-numeric-fraction: ; --tw-ring-inset: ; --tw-ring-offset-width: 0px; --tw-ring-offset-color: #fff; --tw-ring-color: rgb(59 130 246 / .5); --tw-ring-offset-shadow: 0 0 #0000; --tw-ring-shadow: 0 0 #0000; --tw-shadow: 0 0 #0000; --tw-shadow-colored: 0 0 #0000; --tw-blur: ; --tw-brightness: ; --tw-contrast: ; --tw-grayscale: ; --tw-hue-rotate: ; --tw-invert: ; --tw-saturate: ; --tw-sepia: ; --tw-drop-shadow: ; --tw-backdrop-blur: ; --tw-backdrop-brightness: ; --tw-backdrop-contrast: ; --tw-backdrop-grayscale: ; --tw-backdrop-hue-rotate: ; --tw-backdrop-invert: ; --tw-backdrop-opacity: ; --tw-backdrop-saturate: ; --tw-backdrop-sepia: ; box-sizing: border-box; line-height: 1.5; margin-top: 0px; color: rgb(56, 55, 54); font-family: &amp;quot;Source Sans Pro&amp;quot;, sans-serif; text-align: start; background-color: rgb(255, 255, 255);&quot; class=&quot;text_EKBC&quot;&gt;&lt;p style=&quot;--tw-border-spacing-x: 0; --tw-border-spacing-y: 0; --tw-translate-x: 0; --tw-translate-y: 0; --tw-rotate: 0; --tw-skew-x: 0; --tw-skew-y: 0; --tw-scale-x: 1; --tw-scale-y: 1; --tw-pan-x: ; --tw-pan-y: ; --tw-pinch-zoom: ; --tw-scroll-snap-strictness: proximity; --tw-gradient-from-position: ; --tw-gradient-via-position: ; --tw-gradient-to-position: ; --tw-ordinal: ; --tw-slashed-zero: ; --tw-numeric-figure: ; --tw-numeric-spacing: ; --tw-numeric-fraction: ; --tw-ring-inset: ; --tw-ring-offset-width: 0px; --tw-ring-offset-color: #fff; --tw-ring-color: rgb(59 130 246 / .5); --tw-ring-offset-shadow: 0 0 #0000; --tw-ring-shadow: 0 0 #0000; --tw-shadow: 0 0 #0000; --tw-shadow-colored: 0 0 #0000; --tw-blur: ; --tw-brightness: ; --tw-contrast: ; --tw-grayscale: ; --tw-hue-rotate: ; --tw-invert: ; --tw-saturate: ; --tw-sepia: ; --tw-drop-shadow: ; --tw-backdrop-blur: ; --tw-backdrop-brightness: ; --tw-backdrop-contrast: ; --tw-backdrop-grayscale: ; --tw-backdrop-hue-rotate: ; --tw-backdrop-invert: ; --tw-backdrop-opacity: ; --tw-backdrop-saturate: ; --tw-backdrop-sepia: ; box-sizing: border-box; margin: 0 0 var(--ifm-paragraph-margin-bottom);&quot;&gt;SST features a local development environment that lets you debug and test your Lambda functions locally.&lt;/p&gt;&lt;/div&gt;&lt;b&gt;&amp;nbsp;&lt;/b&gt;&lt;/font&gt;" style="text;html=1;align=center;verticalAlign=middle;resizable=0;points=[];autosize=1;strokeColor=none;fillColor=none;" vertex="1" parent="Fzf6os9t-jYp-12unjg--1">
          <mxGeometry x="-470" y="-70" width="820" height="80" as="geometry" />
        </mxCell>
        <mxCell id="UMWOH7P1pfTzg7cVETUd-4" style="edgeStyle=orthogonalEdgeStyle;rounded=0;orthogonalLoop=1;jettySize=auto;html=1;" edge="1" parent="Fzf6os9t-jYp-12unjg--1" source="UMWOH7P1pfTzg7cVETUd-0" target="UMWOH7P1pfTzg7cVETUd-1">
          <mxGeometry relative="1" as="geometry" />
        </mxCell>
        <mxCell id="UMWOH7P1pfTzg7cVETUd-0" value="Amazon&amp;nbsp;&lt;br&gt;API Gateway" style="outlineConnect=0;dashed=0;verticalLabelPosition=bottom;verticalAlign=top;align=center;html=1;shape=mxgraph.aws3.api_gateway;fillColor=#D9A741;gradientColor=none;" vertex="1" parent="Fzf6os9t-jYp-12unjg--1">
          <mxGeometry x="-623" y="119" width="76.5" height="93" as="geometry" />
        </mxCell>
        <mxCell id="UMWOH7P1pfTzg7cVETUd-22" style="edgeStyle=orthogonalEdgeStyle;rounded=0;orthogonalLoop=1;jettySize=auto;html=1;" edge="1" parent="Fzf6os9t-jYp-12unjg--1" source="UMWOH7P1pfTzg7cVETUd-1" target="UMWOH7P1pfTzg7cVETUd-17">
          <mxGeometry relative="1" as="geometry" />
        </mxCell>
        <mxCell id="UMWOH7P1pfTzg7cVETUd-33" style="edgeStyle=orthogonalEdgeStyle;rounded=0;orthogonalLoop=1;jettySize=auto;html=1;" edge="1" parent="Fzf6os9t-jYp-12unjg--1" source="UMWOH7P1pfTzg7cVETUd-1" target="UMWOH7P1pfTzg7cVETUd-0">
          <mxGeometry relative="1" as="geometry">
            <Array as="points">
              <mxPoint x="-213" y="90" />
              <mxPoint x="-585" y="90" />
            </Array>
          </mxGeometry>
        </mxCell>
        <mxCell id="UMWOH7P1pfTzg7cVETUd-1" value="AWS Lambda" style="outlineConnect=0;dashed=0;verticalLabelPosition=bottom;verticalAlign=top;align=center;html=1;shape=mxgraph.aws3.lambda_function;fillColor=#F58534;gradientColor=none;" vertex="1" parent="Fzf6os9t-jYp-12unjg--1">
          <mxGeometry x="-247.25" y="129.5" width="69" height="72" as="geometry" />
        </mxCell>
        <mxCell id="UMWOH7P1pfTzg7cVETUd-15" value="" style="group" vertex="1" connectable="0" parent="Fzf6os9t-jYp-12unjg--1">
          <mxGeometry x="470" y="200" width="250" height="480" as="geometry" />
        </mxCell>
        <mxCell id="UMWOH7P1pfTzg7cVETUd-5" value="" style="rounded=1;whiteSpace=wrap;html=1;" vertex="1" parent="UMWOH7P1pfTzg7cVETUd-15">
          <mxGeometry width="250" height="480" as="geometry" />
        </mxCell>
        <mxCell id="UMWOH7P1pfTzg7cVETUd-2" value="DynamoDB" style="outlineConnect=0;dashed=0;verticalLabelPosition=bottom;verticalAlign=top;align=center;html=1;shape=mxgraph.aws3.dynamo_db;fillColor=#2E73B8;gradientColor=none;" vertex="1" parent="UMWOH7P1pfTzg7cVETUd-15">
          <mxGeometry x="89" y="50" width="72" height="81" as="geometry" />
        </mxCell>
        <mxCell id="UMWOH7P1pfTzg7cVETUd-3" value="Amazon RDS" style="outlineConnect=0;dashed=0;verticalLabelPosition=bottom;verticalAlign=top;align=center;html=1;shape=mxgraph.aws3.rds;fillColor=#2E73B8;gradientColor=none;" vertex="1" parent="UMWOH7P1pfTzg7cVETUd-15">
          <mxGeometry x="89" y="200" width="72" height="81" as="geometry" />
        </mxCell>
        <mxCell id="UMWOH7P1pfTzg7cVETUd-8" value="Amazon S3" style="outlineConnect=0;dashed=0;verticalLabelPosition=bottom;verticalAlign=top;align=center;html=1;shape=mxgraph.aws3.s3;fillColor=#E05243;gradientColor=none;" vertex="1" parent="UMWOH7P1pfTzg7cVETUd-15">
          <mxGeometry x="86.75" y="347" width="76.5" height="93" as="geometry" />
        </mxCell>
        <mxCell id="UMWOH7P1pfTzg7cVETUd-7" value="&lt;b&gt;&lt;font style=&quot;font-size: 15px;&quot;&gt;Data tier&amp;nbsp;&lt;/font&gt;&lt;/b&gt;" style="text;html=1;align=center;verticalAlign=middle;resizable=0;points=[];autosize=1;strokeColor=none;fillColor=none;" vertex="1" parent="UMWOH7P1pfTzg7cVETUd-15">
          <mxGeometry x="80" y="10" width="90" height="30" as="geometry" />
        </mxCell>
        <mxCell id="UMWOH7P1pfTzg7cVETUd-35" style="edgeStyle=orthogonalEdgeStyle;rounded=0;orthogonalLoop=1;jettySize=auto;html=1;" edge="1" parent="Fzf6os9t-jYp-12unjg--1" source="UMWOH7P1pfTzg7cVETUd-17" target="UMWOH7P1pfTzg7cVETUd-5">
          <mxGeometry relative="1" as="geometry">
            <Array as="points">
              <mxPoint x="290" y="540" />
              <mxPoint x="290" y="440" />
            </Array>
          </mxGeometry>
        </mxCell>
        <mxCell id="UMWOH7P1pfTzg7cVETUd-17" value="Developer Laptop&lt;div&gt;&lt;br/&gt;&lt;/div&gt;" style="verticalLabelPosition=bottom;html=1;verticalAlign=top;align=center;strokeColor=none;fillColor=#00BEF2;shape=mxgraph.azure.laptop;pointerEvents=1;" vertex="1" parent="Fzf6os9t-jYp-12unjg--1">
          <mxGeometry x="-360" y="510" width="294.5" height="130" as="geometry" />
        </mxCell>
        <mxCell id="UMWOH7P1pfTzg7cVETUd-20" value="Developer editing Lambda functions&lt;br&gt;and running&amp;nbsp;&lt;br&gt;npx sst dev" style="text;html=1;align=center;verticalAlign=middle;resizable=0;points=[];autosize=1;strokeColor=none;fillColor=none;" vertex="1" parent="Fzf6os9t-jYp-12unjg--1">
          <mxGeometry y="575" width="210" height="60" as="geometry" />
        </mxCell>
        <mxCell id="UMWOH7P1pfTzg7cVETUd-21" value="1. Request is sent to your lambda function" style="text;html=1;align=center;verticalAlign=middle;resizable=0;points=[];autosize=1;strokeColor=none;fillColor=none;" vertex="1" parent="Fzf6os9t-jYp-12unjg--1">
          <mxGeometry x="-546.5" y="138" width="250" height="30" as="geometry" />
        </mxCell>
        <mxCell id="UMWOH7P1pfTzg7cVETUd-23" value="2. Lambda function forwards the &lt;br&gt;request to your laptop" style="text;html=1;align=center;verticalAlign=middle;resizable=0;points=[];autosize=1;strokeColor=none;fillColor=none;rotation=-90;" vertex="1" parent="Fzf6os9t-jYp-12unjg--1">
          <mxGeometry x="-330" y="340" width="190" height="40" as="geometry" />
        </mxCell>
        <mxCell id="UMWOH7P1pfTzg7cVETUd-24" style="edgeStyle=orthogonalEdgeStyle;rounded=0;orthogonalLoop=1;jettySize=auto;html=1;entryX=0.92;entryY=0.5;entryDx=0;entryDy=0;entryPerimeter=0;" edge="1" parent="Fzf6os9t-jYp-12unjg--1" source="Fzf6os9t-jYp-12unjg--6" target="UMWOH7P1pfTzg7cVETUd-17">
          <mxGeometry relative="1" as="geometry" />
        </mxCell>
        <mxCell id="UMWOH7P1pfTzg7cVETUd-25" value="3. Laptop runs Lambda code&amp;nbsp;&lt;br&gt;locally and return a response" style="text;html=1;align=center;verticalAlign=middle;resizable=0;points=[];autosize=1;strokeColor=none;fillColor=none;" vertex="1" parent="Fzf6os9t-jYp-12unjg--1">
          <mxGeometry x="-302.75" y="535" width="180" height="40" as="geometry" />
        </mxCell>
        <mxCell id="UMWOH7P1pfTzg7cVETUd-30" value="4. Your laptop will access other resources if needed to fulfill&amp;nbsp;&lt;br&gt;the request" style="text;html=1;align=center;verticalAlign=middle;resizable=0;points=[];autosize=1;strokeColor=none;fillColor=none;" vertex="1" parent="Fzf6os9t-jYp-12unjg--1">
          <mxGeometry x="-60" y="505" width="340" height="40" as="geometry" />
        </mxCell>
        <mxCell id="UMWOH7P1pfTzg7cVETUd-31" style="edgeStyle=orthogonalEdgeStyle;rounded=0;orthogonalLoop=1;jettySize=auto;html=1;entryX=1;entryY=0.5;entryDx=0;entryDy=0;entryPerimeter=0;" edge="1" parent="Fzf6os9t-jYp-12unjg--1" source="UMWOH7P1pfTzg7cVETUd-17" target="UMWOH7P1pfTzg7cVETUd-1">
          <mxGeometry relative="1" as="geometry">
            <Array as="points">
              <mxPoint x="-130" y="400" />
              <mxPoint x="-45" y="400" />
              <mxPoint x="-45" y="166" />
            </Array>
          </mxGeometry>
        </mxCell>
        <mxCell id="UMWOH7P1pfTzg7cVETUd-32" value="5. returned response from your laptop" style="text;html=1;align=center;verticalAlign=middle;resizable=0;points=[];autosize=1;strokeColor=none;fillColor=none;rotation=-90;" vertex="1" parent="Fzf6os9t-jYp-12unjg--1">
          <mxGeometry x="-140" y="270" width="220" height="30" as="geometry" />
        </mxCell>
        <mxCell id="UMWOH7P1pfTzg7cVETUd-34" value="6. response returned from AWS Lambda" style="text;html=1;align=center;verticalAlign=middle;resizable=0;points=[];autosize=1;strokeColor=none;fillColor=none;" vertex="1" parent="Fzf6os9t-jYp-12unjg--1">
          <mxGeometry x="-500" y="58" width="240" height="30" as="geometry" />
        </mxCell>
        <mxCell id="UMWOH7P1pfTzg7cVETUd-36" value="&lt;font style=&quot;font-size: 15px;&quot;&gt;&lt;b&gt;Quiz:&lt;br&gt;Think about scenarios where live Lambda would fail during development?&amp;nbsp;&lt;/b&gt;&lt;/font&gt;" style="text;html=1;align=center;verticalAlign=middle;resizable=0;points=[];autosize=1;strokeColor=none;fillColor=none;" vertex="1" parent="Fzf6os9t-jYp-12unjg--1">
          <mxGeometry x="-70" y="79.5" width="560" height="50" as="geometry" />
        </mxCell>
        <mxCell id="UMWOH7P1pfTzg7cVETUd-40" value="" style="fillColor=none;strokeColor=#5A6C86;dashed=1;verticalAlign=top;fontStyle=0;fontColor=#5A6C86;whiteSpace=wrap;html=1;" vertex="1" parent="Fzf6os9t-jYp-12unjg--1">
          <mxGeometry x="-770" y="-110" width="1590" height="850" as="geometry" />
        </mxCell>
      </root>
    </mxGraphModel>
  </diagram>
</mxfile>
